<svg xmlns="http://www.w3.org/2000/svg" width="206" height="35.245" viewBox="0 0 206 35.245">
  <g id="Group_211" data-name="Group 211" transform="translate(2292.828 -1803.458)">
    <path id="Path_52" data-name="Path 52" d="M-162.786,1820.054a17.7,17.7,0,0,1-.293,3.707,20.954,20.954,0,0,1-.536,2.221,15.623,15.623,0,0,1-.99,2.537,17.646,17.646,0,0,1-1.115,1.93,18.961,18.961,0,0,1-2.855,3.343,17.424,17.424,0,0,1-1.523,1.267,17.692,17.692,0,0,1-2.692,1.662,18.782,18.782,0,0,1-5.309,1.692,22.274,22.274,0,0,1-4.777.26,18.933,18.933,0,0,1-6.579-1.471,14.34,14.34,0,0,1-3.751-2.333,14.406,14.406,0,0,1-3.08-3.782,19.4,19.4,0,0,1-2.042-5.447,20.006,20.006,0,0,1-.426-2.856,23,23,0,0,1-.027-2.835,20.087,20.087,0,0,1,.82-4.709,14.538,14.538,0,0,1,2.809-5.291,17.788,17.788,0,0,1,5.256-4.3,17.624,17.624,0,0,1,5.914-1.93c.754-.11,1.511-.176,2.273-.223q.993-.061,1.982-.033a21.287,21.287,0,0,1,7.471,1.48,15.52,15.52,0,0,1,3.489,1.924,14.421,14.421,0,0,1,2.122,1.957,15.011,15.011,0,0,1,1.73,2.346,14.609,14.609,0,0,1,1.451,3.472,19.3,19.3,0,0,1,.606,3.16A16.346,16.346,0,0,1-162.786,1820.054ZM-178.1,1821.4c-.022-.094-.1-.111-.159-.151a12.372,12.372,0,0,1-1.125-.792,2.635,2.635,0,0,1-.949-2.659,2.848,2.848,0,0,1,.69-1.329,4.84,4.84,0,0,1,1.5-1.108,17.491,17.491,0,0,1,3.452-1.211c.462-.12.928-.226,1.392-.341.147-.036.168-.087.068-.172a9.2,9.2,0,0,0-1.481-1.094,11.512,11.512,0,0,0-2.178-.917,11.032,11.032,0,0,0-2.676-.483,13.925,13.925,0,0,0-3.13.143,10.332,10.332,0,0,0-3.744,1.4,10.2,10.2,0,0,0-2.407,2.08,8.348,8.348,0,0,0-1.607,2.954c-.136.438-.22.887-.312,1.336-.085.414-.13.833-.176,1.248-.057.518-.014,1.046-.022,1.569,0,.3.109.575.112.87,0,.386.02.4.392.333,1.132-.193,2.257-.418,3.382-.648.972-.2,1.952-.348,2.938-.453.6-.064,1.2-.134,1.809-.173.622-.04,1.243-.122,1.866-.139.589-.017,1.172-.082,1.756-.137A2.018,2.018,0,0,0-178.1,1821.4Zm-3.2,9.717a13.359,13.359,0,0,0,1.593-.1,10.428,10.428,0,0,0,2.534-.619,10.278,10.278,0,0,0,4-2.747,10.227,10.227,0,0,0,2.586-5.694,8.508,8.508,0,0,0,.065-1.208,13.623,13.623,0,0,0-.136-2.025,11.279,11.279,0,0,0-.458-1.865c-.1-.289-.132-.311-.415-.242-1.142.279-2.292.523-3.417.868a11.767,11.767,0,0,0-1.771.685c-.072.035-.179.052-.186.145s.1.122.166.163c.344.211.7.412,1.033.632a4.334,4.334,0,0,1,1.317,1.151,2.389,2.389,0,0,1-.082,2.8,3.485,3.485,0,0,1-1.623,1.094,13.317,13.317,0,0,1-3.326.582c-.421.037-.845.028-1.264.073-.766.083-1.537.107-2.3.187-.858.089-1.716.185-2.566.332-.913.159-1.82.358-2.73.535-.451.088-.9.164-1.355.249-.2.038-.216.064-.121.252.087.172.183.339.28.506a7.748,7.748,0,0,0,2.05,2.349,8.715,8.715,0,0,0,2.529,1.315A11.757,11.757,0,0,0-181.3,1831.12Z" transform="translate(-1924.052)" fill="#828b75"/>
    <path id="Path_53" data-name="Path 53" d="M-948.362,1879.781c-.864,0-1.728.028-2.59-.008q-1.362-.057-2.724-.087c-1.148-.025-2.3-.029-3.444.007-.844.027-1.688.037-2.531.1-.037,0-.073,0-.11,0-.323,0-.342-.016-.346-.339,0-.147.009-.295,0-.441a.41.41,0,0,1,.245-.419c.382-.22.759-.449,1.135-.679.133-.081.249-.191.387-.262a.666.666,0,0,0,.37-.625q.026-.591.065-1.181c.065-.961.058-1.926.122-2.886.036-.542.026-1.082.046-1.623.04-1.064.042-2.129.072-3.193q.026-.909.028-1.817c0-2.727.011-5.455,0-8.182-.005-.954-.019-1.91-.059-2.863-.024-.559-.012-1.12-.052-1.678-.05-.695-.091-1.391-.2-2.081a.994.994,0,0,0-.8-.87,6.315,6.315,0,0,0-1.114-.177c-.439-.035-.88-.045-1.32-.063-.273-.011-.3-.031-.3-.3s-.005-.551,0-.826c.005-.221.038-.259.261-.256a13.015,13.015,0,0,1,1.4.04c.055.007.11.01.165.011,1.928.054,3.857.089,5.785.044.752-.017,1.506,0,2.258-.05.8-.048,1.6-.013,2.4-.055,1.414-.076,2.828-.035,4.242-.043.854,0,1.7.069,2.555.148a22.037,22.037,0,0,1,2.826.453,12.281,12.281,0,0,1,5.293,2.532,13.117,13.117,0,0,1,3.677,4.785,12.589,12.589,0,0,1,.97,3.575,17.262,17.262,0,0,1,.144,2.415,18.831,18.831,0,0,1-.884,5.442,16.817,16.817,0,0,1-1.865,3.948,15.88,15.88,0,0,1-1.856,2.353,18.993,18.993,0,0,1-1.666,1.559,13.245,13.245,0,0,1-2.027,1.374,16.842,16.842,0,0,1-4.443,1.76,20.839,20.839,0,0,1-3.079.424C-946.343,1879.819-947.353,1879.779-948.362,1879.781Z" transform="translate(-1223.274 -41.821)" fill="#828b75"/>
    <path id="Path_54" data-name="Path 54" d="M-1811.683,1859.446a.694.694,0,0,0-.373.093c-.795.359-1.588.722-2.385,1.074a3.38,3.38,0,0,1-1.025.3,4.1,4.1,0,0,0-.748.186c-.589.176-1.193.311-1.767.524a15.149,15.149,0,0,0-1.554.557.391.391,0,0,1-.443,0c-.1-.073-.195-.012-.288.018a14.628,14.628,0,0,0-1.912.78,2.417,2.417,0,0,1-.627.192.974.974,0,0,0-.76.429.721.721,0,0,1-.332.237,11.006,11.006,0,0,1-1.039.442c-.142.058-.267.111-.269.3,0,.121-.107.183-.2.244a18.351,18.351,0,0,1-1.634.914c-.065.033-.129.07-.2.1-.1.043-.142.1-.1.215a.239.239,0,0,1-.13.322,1.3,1.3,0,0,1-.312.171,1.1,1.1,0,0,0-.731.7,2.353,2.353,0,0,1-.692.833,2.706,2.706,0,0,0-.784.876,5.735,5.735,0,0,1-.926,1.289,1.152,1.152,0,0,1-.2.186c-.259.2-.3.207-.545,0a14.274,14.274,0,0,1-1.922-1.928c-.261-.322-.5-.657-.732-1-.175-.257-.173-.323.061-.5a22.927,22.927,0,0,0,1.918-1.694c.46-.445.981-.828,1.475-1.239.175-.145.361-.271.392-.535a.5.5,0,0,1,.265-.338,3.258,3.258,0,0,1,.285-.168,1.536,1.536,0,0,0,.558-.432,1.058,1.058,0,0,1,.736-.39,2.147,2.147,0,0,0,.584-.156,13.021,13.021,0,0,1,1.846-.549.444.444,0,0,0,.23-.084.827.827,0,0,1,.576-.216c.219-.016.435-.07.652-.108a.44.44,0,0,0,.27-.174.593.593,0,0,1,.611-.229c.151.031.25-.009.295-.164a.985.985,0,0,1,.74-.673,8.807,8.807,0,0,1,1.373-.288,7.016,7.016,0,0,1,1.286-.122.273.273,0,0,0,.3-.233.821.821,0,0,1,.634-.612c.8-.259,1.6-.549,2.4-.827a1.1,1.1,0,0,0,.314-.169c.113-.087.114-.13-.006-.2s-.279-.142-.41-.226c-.157-.1-.164-.189-.049-.339a.5.5,0,0,1,.28-.162c1.3-.371,2.557-.864,3.815-1.355.616-.24,1.231-.487,1.83-.765.441-.2.856-.462,1.282-.7.2-.111.4-.225.612-.347-.076-.06-.135-.021-.189-.007a5.551,5.551,0,0,0-1.4.481.606.606,0,0,1-.181.065c-.388.077-.765.193-1.146.3a.455.455,0,0,1-.374-.022.316.316,0,0,0-.24-.026c-.3.067-.59.137-.886.2a.265.265,0,0,0-.186.148.319.319,0,0,1-.265.174,4.74,4.74,0,0,0-1.4.4c-.436.175-.891.287-1.334.437-.172.058-.336.108-.339.335a.219.219,0,0,1-.1.157c-.036.029-.083.056-.1.094-.118.3-.387.4-.645.52a5.123,5.123,0,0,0-.74.421,6.025,6.025,0,0,1-1.161.5,7.217,7.217,0,0,1-1.234.381,9.474,9.474,0,0,0-1.321.475,4.858,4.858,0,0,1-1.077.331.389.389,0,0,0-.261.14.721.721,0,0,1-.457.231c-.126.024-.251.054-.378.077a.69.69,0,0,0-.468.3,1.332,1.332,0,0,1-.8.455,16.861,16.861,0,0,0-2.793,1.086c-.508.233-.975.55-1.481.794a.619.619,0,0,0-.28.218.735.735,0,0,1-.47.311c-.123.036-.25.061-.374.094a1.22,1.22,0,0,0-.49.273c-.248.212-.457.451-.683.68-.293.3-.646.541-.968.814-.539.457-1.084.907-1.624,1.362-.2.172-.253.168-.359-.066a17.379,17.379,0,0,1-.749-1.895c-.1-.3-.1-.351.162-.5a7.54,7.54,0,0,0,1.314-.938,5.48,5.48,0,0,1,1.032-.575,1.029,1.029,0,0,0,.331-.242,1.427,1.427,0,0,1,.738-.457c.219-.068.439-.136.662-.189.519-.123,1.014-.327,1.529-.46a.332.332,0,0,0,.285-.293.491.491,0,0,1,.416-.42c.409-.1.827-.175,1.227-.316a7.409,7.409,0,0,0,.849-.315,6.037,6.037,0,0,1,.916-.292,4.9,4.9,0,0,0,.656-.286.451.451,0,0,0,.261-.294.735.735,0,0,1,.49-.452,16.356,16.356,0,0,0,1.7-.848.681.681,0,0,0,.187-.16.992.992,0,0,1,.343-.271.365.365,0,0,0,.167-.14,1.333,1.333,0,0,1,.6-.463,2.182,2.182,0,0,0,.677-.464,1.253,1.253,0,0,1,.763-.349,1.346,1.346,0,0,0,.729-.295.7.7,0,0,1,.268-.138,6.756,6.756,0,0,0,.773-.288,1.9,1.9,0,0,0,.626-.33.887.887,0,0,1,.432-.169,5.452,5.452,0,0,0,.785-.254.936.936,0,0,0,.453-.3.286.286,0,0,1,.208-.122,5.664,5.664,0,0,0,1.87-.618c.59-.279,1.16-.6,1.728-.916.037-.021.09-.029.1-.084-.025-.023-.052-.014-.078-.008-.828.212-1.679.305-2.513.492a3.679,3.679,0,0,1-.866.147.729.729,0,0,0-.433.163,1.223,1.223,0,0,1-.558.216,18.548,18.548,0,0,0-2.456.615,3.48,3.48,0,0,0-.907.513,4.412,4.412,0,0,0-.8.577.355.355,0,0,1-.147.07,8.853,8.853,0,0,0-1.667.721,14.131,14.131,0,0,1-1.879.776.456.456,0,0,0-.334.356c-.047.262-.247.369-.473.449-.554.195-1.109.388-1.676.541a6.356,6.356,0,0,0-.806.279.643.643,0,0,1-.7-.025c-.059-.046-.123-.015-.183.009-.725.289-1.455.565-2.193.819a1.169,1.169,0,0,0-.735.538.743.743,0,0,1-.267.273c-.338.22-.644.484-1,.683-.408.23-.786.51-1.18.763-.586.378-1.182.741-1.778,1.106-.165.1-.227.076-.265-.12-.076-.387-.141-.777-.2-1.167a17.305,17.305,0,0,1-.172-3.35,18.779,18.779,0,0,1,.516-3.7,15.316,15.316,0,0,1,1.183-3.313,13.71,13.71,0,0,1,2.334-3.257,16.583,16.583,0,0,1,3.543-2.825,15.9,15.9,0,0,1,5.351-1.969,20,20,0,0,1,2.68-.291c.514-.021,1.027-.049,1.541-.038a19.4,19.4,0,0,1,7.4,1.51,13.185,13.185,0,0,1,3.827,2.461,14.588,14.588,0,0,1,2,2.3,12.862,12.862,0,0,1,1.865,4.15,15.759,15.759,0,0,1,.509,3.037c.034.558.108,1.116.088,1.675a22.133,22.133,0,0,1-.394,3.772,20.856,20.856,0,0,1-.676,2.44,13.551,13.551,0,0,1-1.1,2.342,16.7,16.7,0,0,1-3.142,3.918,16.357,16.357,0,0,1-3.341,2.413,16.9,16.9,0,0,1-5.57,1.84,20.158,20.158,0,0,1-4.12.2,17.356,17.356,0,0,1-6.143-1.406,11.8,11.8,0,0,1-1.792-.966c-.225-.15-.236-.241.009-.367a10.091,10.091,0,0,0,1.508-1.191c.166-.13.318-.278.481-.411a.325.325,0,0,0,.148-.271.7.7,0,0,1,.443-.644,4.794,4.794,0,0,1,.643-.244,3.035,3.035,0,0,0,.914-.551.518.518,0,0,0,.127-.178,2.355,2.355,0,0,1,1.5-1.248.332.332,0,0,0,.217-.192.745.745,0,0,1,.429-.364c.216-.077.427-.17.636-.264a.548.548,0,0,0,.335-.366.842.842,0,0,1,.74-.646,2.156,2.156,0,0,0,1.105-.382,1.074,1.074,0,0,1,.466-.159.324.324,0,0,0,.262-.177.543.543,0,0,1,.514-.311.485.485,0,0,0,.472-.31.622.622,0,0,1,.441-.3,10.867,10.867,0,0,0,1.181-.458c.117-.053.238-.1.359-.142a12.438,12.438,0,0,1,1.332-.347c.4-.1.8-.217,1.194-.327a.421.421,0,0,0,.229-.146.671.671,0,0,1,.441-.256.482.482,0,0,0,.418-.31.409.409,0,0,1,.337-.258,3.747,3.747,0,0,0,1.659-.76C-1811.892,1859.587-1811.787,1859.518-1811.683,1859.446Z" transform="translate(-418.723 -35)" fill="#828b75"/>
    <path id="Path_55" data-name="Path 55" d="M-2262.778,1838.409c0-.478-.009-.955,0-1.433.1-4.545.03-9.091.031-13.636,0-1,0-2-.051-3-.041-.778-.067-1.557-.133-2.335a1.364,1.364,0,0,0-1.348-1.3,16.137,16.137,0,0,0-2.309-.123c-.439,0-.445-.007-.445-.447,0-.248,0-.5,0-.744.006-.2.041-.243.248-.241.5.005,1.011-.018,1.514.038.064.007.128.011.192.014,2.388.083,4.777.085,7.164.047,1.074-.017,2.146-.091,3.221-.1.457,0,.458,0,.458.45,0,.239,0,.478,0,.716-.006.215-.047.258-.262.265-.275.01-.551.009-.827.009a15.442,15.442,0,0,0-1.7.119,2.145,2.145,0,0,0-.506.13,1.158,1.158,0,0,0-.78,1.034,26.818,26.818,0,0,0-.171,3.213c-.108,6.364-.043,12.729-.031,19.093a19.549,19.549,0,0,0,.19,3.047,1.229,1.229,0,0,0,.982,1.057,3.3,3.3,0,0,0,.732.121c.5.023,1.006.085,1.513.074.219,0,.439.031.659.042a.185.185,0,0,1,.2.207c0,.331,0,.661,0,.992,0,.138-.079.2-.211.2-.4-.006-.791,0-1.185-.024q-.33-.02-.66-.035c-1.57-.07-3.141-.069-4.711-.053-.826.008-1.652.04-2.479.059-.193,0-.386-.007-.579,0-.9.018-1.8.07-2.7.06-.116,0-.241.031-.31-.114-.026-.055-.1-.048-.15-.038a21.2,21.2,0,0,1-3.546.155,3.209,3.209,0,0,0-.6.035.7.7,0,0,1-.192.007c-1.229-.095-2.461-.016-3.691-.062-1.249-.046-2.5-.013-3.747-.056-1.892-.065-3.784-.026-5.677-.052-.467-.007-.934-.047-1.4-.043-.927.008-1.853.055-2.779.093-.5.021-1.009.042-1.513.068-.274.014-.3-.02-.308-.29,0-.239.005-.478,0-.716a.333.333,0,0,1,.214-.344c.419-.208.838-.416,1.24-.659a1.791,1.791,0,0,0,.861-1.4c.1-.765.121-1.535.173-2.3.054-.808.036-1.615.051-2.422.107-5.721.034-11.442.034-17.163,0-1.2,0-2.406-.054-3.606a13.349,13.349,0,0,0-.233-2.214,1.1,1.1,0,0,0-.574-.7,2.551,2.551,0,0,0-1.135-.3c-.805-.067-1.611-.117-2.42-.116-.255,0-.3-.041-.3-.283-.006-.349-.007-.7,0-1.047,0-.22.042-.246.27-.231.055,0,.11.011.165.011.955,0,1.91.049,2.864.077.761.023,1.523.028,2.285.067.724.037,1.451.012,2.177.024.882.014,1.762-.045,2.643-.069.633-.017,1.269-.006,1.9-.053.5-.038,1.01-.025,1.514-.055.215-.013.239.005.242.223q.008.537,0,1.074c0,.222-.037.257-.258.261-.542.011-1.083.015-1.624.055-.43.032-.861.057-1.287.126a1.92,1.92,0,0,0-.857.356.911.911,0,0,0-.373.59,14.8,14.8,0,0,0-.189,1.583c-.136,2.146-.075,4.295-.109,6.443-.092,5.758-.024,11.516-.029,17.273,0,.907.019,1.817.046,2.726,0,.11.022.219.035.328.042.369.042.369.414.418a1.311,1.311,0,0,0,.192.016c.708-.01,1.414.044,2.119.076,1.479.066,2.958.037,4.436.033.679,0,1.357-.038,2.035-.087.412-.03.825-.031,1.237-.064a23.487,23.487,0,0,0,3.785-.542c.611-.152.53-.08.743-.708.2-.582.327-1.185.482-1.78.26-1,.5-2,.74-2.995.054-.224.094-.257.32-.26.376,0,.753-.006,1.13,0,.209,0,.245.049.217.251-.106.782-.22,1.563-.322,2.346-.094.728-.177,1.457-.266,2.185-.06.492-.122.983-.18,1.475-.029.246-.058.492-.078.739-.013.167.029.213.2.22a4.16,4.16,0,0,0,.523,0,12.954,12.954,0,0,0,1.616-.152,1.646,1.646,0,0,0,.708-.351.909.909,0,0,0,.3-.451,3.726,3.726,0,0,0,.143-.757,8.943,8.943,0,0,0,.073-.933C-2262.854,1840.685-2262.753,1839.548-2262.778,1838.409Z" transform="translate(0 -7.942)" fill="#828b75"/>
    <path id="Path_56" data-name="Path 56" d="M-1447.234,1854.621a.391.391,0,0,0-.041.273q0,9.052.014,18.1a15.892,15.892,0,0,0,.082,1.731c.014.127.008.257.011.385a21.076,21.076,0,0,0,.215,2.741,1,1,0,0,0,.809.866,6,6,0,0,0,1.17.175c.421.028.841.072,1.265.063.256,0,.285.032.289.286,0,.276.005.551,0,.827,0,.24-.04.279-.274.269-.477-.019-.953-.049-1.43-.075-.137-.008-.275-.027-.412-.027-1.3,0-2.591-.007-3.887,0-.77.005-1.54.02-2.309.055-.357.017-.714.046-1.073.049-.293,0-.319-.022-.323-.307,0-.266,0-.533,0-.8,0-.243.033-.28.267-.281.561,0,1.118-.052,1.676-.107a4.471,4.471,0,0,0,.81-.156.96.96,0,0,0,.734-.775,8.532,8.532,0,0,0,.16-1.144c.051-.861.075-1.723.12-2.584.032-.615.042-1.229.042-1.844q.008-9.534,0-19.068c0-.037,0-.074,0-.11a1.6,1.6,0,0,0-.445-1.284,2.237,2.237,0,0,0-1.366-.811c-.575-.069-1.153-.081-1.731-.106-.083,0-.165,0-.248-.006a.172.172,0,0,1-.188-.19q0-.5,0-.992a.18.18,0,0,1,.207-.2l.3,0c1.644,0,3.288.1,4.932.059.652-.014,1.3-.031,1.955-.062a.578.578,0,0,1,.534.263c.812,1.079,1.623,2.158,2.451,3.224.563.725,1.152,1.43,1.731,2.143.758.934,1.514,1.869,2.277,2.8.681.831,1.37,1.654,2.055,2.482q1.1,1.326,2.195,2.653,1.142,1.378,2.287,2.755,1.208,1.449,2.421,2.894c.705.834,1.419,1.662,2.131,2.49.677.786,1.354,1.572,2.04,2.35.249.282.525.539.79.808a.111.111,0,0,0,.1.042c.065-.042.041-.112.045-.172s0-.129,0-.193q0-8.487-.011-16.974c0-.806-.04-1.614-.09-2.42-.024-.393-.057-.787-.062-1.182-.007-.488-.085-.969-.133-1.452a.939.939,0,0,0-.761-.87,6.706,6.706,0,0,0-1.169-.182c-.43-.036-.862-.044-1.293-.063-.26-.011-.289-.034-.293-.285,0-.285-.005-.57,0-.854.005-.207.04-.249.244-.246.7.009,1.4-.021,2.093.039.11.01.22.012.33.012,1.5,0,3,.009,4.493,0,.7,0,1.395-.061,2.093-.054h.248c.119,0,.2.053.2.178q.005.51,0,1.02c0,.142-.092.191-.22.186-.368-.014-.733.045-1.1.053a7.5,7.5,0,0,0-1.364.173.946.946,0,0,0-.82.815c-.05.289-.093.581-.117.873-.058.686-.089,1.373-.129,2.06-.044.734-.024,1.469-.053,2.2-.1,2.46-.029,4.922-.042,7.383-.013,2.416-.033,4.832.011,7.247.04,2.186.005,4.371.055,6.556q.027,1.211.039,2.423c0,.377,0,.36-.371.275-.752-.174-1.475-.455-2.234-.6a1.143,1.143,0,0,1-.615-.34c-.56-.571-1.068-1.186-1.6-1.786-.5-.572-.995-1.154-1.479-1.741-.444-.538-.872-1.089-1.309-1.633-.673-.837-1.316-1.7-2.011-2.517-.594-.7-1.174-1.411-1.763-2.115-.636-.76-1.277-1.516-1.914-2.276-.59-.7-1.176-1.41-1.765-2.113q-.964-1.15-1.93-2.3-.876-1.045-1.748-2.092-.972-1.161-1.948-2.319c-.442-.528-.88-1.059-1.32-1.587q-.556-.666-1.114-1.33l-1.309-1.561A.2.2,0,0,0-1447.234,1854.621Z" transform="translate(-771.393 -42.375)" fill="#828b75"/>
    <path id="Path_57" data-name="Path 57" d="M-561.526,1866.352h-10.611c-.221,0-.44.019-.66.032a.352.352,0,0,0-.342.257c-.269.654-.549,1.3-.826,1.954-.464,1.09-.935,2.177-1.388,3.271a9.334,9.334,0,0,0-.632,1.962.882.882,0,0,0,.73,1.1,6.533,6.533,0,0,0,1.226.167c.476.036.952.066,1.431.061.282,0,.317.038.321.32,0,.3.006.606,0,.909,0,.235-.04.269-.28.267-.634,0-1.265-.056-1.9-.092-.046,0-.091-.01-.137-.011-1.4-.029-2.81-.108-4.215-.052-.889.036-1.781.023-2.669.1a5.947,5.947,0,0,1-.714.049c-.177-.005-.219-.036-.223-.208q-.013-.537,0-1.074c0-.174.047-.21.25-.211.423,0,.844-.025,1.266-.054a2.131,2.131,0,0,0,1.3-.447,2.058,2.058,0,0,0,.386-.463,13.19,13.19,0,0,0,.84-1.58q.653-1.4,1.3-2.8c.619-1.343,1.245-2.682,1.84-4.036.535-1.219,1.081-2.434,1.621-3.651l1.687-3.8c.592-1.335,1.188-2.668,1.773-4.005.394-.9.778-1.8,1.16-2.71q1.221-2.894,2.432-5.792a.357.357,0,0,1,.392-.26c.294.014.588.012.882,0a.348.348,0,0,1,.379.243c.426,1.016.86,2.029,1.292,3.043q1.236,2.9,2.473,5.8.809,1.9,1.615,3.8,1.091,2.56,2.186,5.118c.537,1.259,1.067,2.52,1.607,3.777.7,1.62,1.39,3.24,2.125,4.843.26.568.536,1.128.821,1.684a4.757,4.757,0,0,0,.256.424,1.616,1.616,0,0,0,1.278.757c.43.039.857.1,1.289.1.262,0,.292.033.3.281,0,.322.006.643,0,.964,0,.218-.043.259-.265.25-.477-.018-.953-.048-1.43-.075-.147-.008-.293-.024-.439-.032q-1.72-.093-3.442-.052c-.9.021-1.8.066-2.7.1-.2.007-.4.005-.606,0-.781-.012-1.559.08-2.341.061-.092,0-.184,0-.276,0-.2-.009-.241-.04-.245-.245-.007-.331-.007-.661,0-.992,0-.222.038-.264.259-.259.552.011,1.1-.043,1.652-.06a5.167,5.167,0,0,0,1.226-.161,1.681,1.681,0,0,0,.284-.1.647.647,0,0,0,.38-.593,2.746,2.746,0,0,0-.254-1.148q-1.09-2.739-2.193-5.473c-.133-.332-.278-.66-.4-1a.317.317,0,0,0-.354-.233c-.239.009-.478,0-.717,0Zm-5.275-14.665a.422.422,0,0,0-.135.223q-.7,1.661-1.407,3.322c-.456,1.073-.917,2.144-1.372,3.218q-.945,2.232-1.885,4.466c-.182.431-.365.862-.544,1.295-.1.243-.1.245.153.253q.193.006.386.006h8.158c.542,0,1.084,0,1.626-.005.36,0,.366-.011.224-.352-.067-.161-.137-.321-.2-.482q-1.536-3.7-3.072-7.4-.9-2.162-1.79-4.326A.362.362,0,0,0-566.8,1851.687Z" transform="translate(-1571.583 -38.683)" fill="#828b75"/>
  </g>
</svg>
