<svg xmlns="http://www.w3.org/2000/svg" width="161.375" height="118.992" viewBox="0 0 161.375 118.992">
  <g id="Group_217" data-name="Group 217" transform="translate(-1143.725 -1442.69)" opacity="0.503">
    <path id="Path_59" data-name="Path 59" d="M1143.725,1512.214c2.057-4.943,5.893-7.147,9.887-10.414,2.052-1.679,3.36-4.14,5.529-5.681,2.459-1.747,5.289-3.165,7.853-4.817,2.13-1.373,4.173-2.888,6.383-4.132,1.914-1.077,3.574-2.5,5.4-3.7a4.033,4.033,0,0,0,1.448-1.478,6.323,6.323,0,0,1,3.975-2.911c4-1.376,7.944-2.871,11.87-4.432.324-.129.667-.3.989-.047,1.235.962,2.518.671,3.788.136a34.307,34.307,0,0,1,4.363-1.51c3.071-.831,6.073-1.876,9.072-2.929,1.224-.43,2.309-1.013,2.561-2.43a2.468,2.468,0,0,1,1.807-1.929c3.392-1.382,6.939-2.311,10.166-4.2a48.031,48.031,0,0,1,9.019-3.9,1.933,1.933,0,0,0,.794-.379,23.815,23.815,0,0,1,4.34-3.125,18.829,18.829,0,0,1,4.91-2.777,100.321,100.321,0,0,1,13.29-3.328,6.6,6.6,0,0,0,3.02-1.166,3.933,3.933,0,0,1,2.342-.88,19.963,19.963,0,0,0,4.686-.8c4.512-1.01,9.119-1.517,13.6-2.664.143-.036.29-.082.424.041-.045.3-.326.344-.529.458-3.074,1.734-6.161,3.444-9.354,4.955-3.234,1.53-6.492,2.994-10.118,3.343a1.545,1.545,0,0,0-1.126.659,5.06,5.06,0,0,1-2.45,1.615,29.49,29.49,0,0,1-4.249,1.376,4.793,4.793,0,0,0-2.339.915,10.3,10.3,0,0,1-3.39,1.787,36.561,36.561,0,0,1-4.182,1.561,3.756,3.756,0,0,0-1.451.746,7.277,7.277,0,0,1-3.946,1.595,6.783,6.783,0,0,0-4.129,1.889,11.813,11.813,0,0,1-3.663,2.513,7.2,7.2,0,0,0-3.266,2.506,1.978,1.978,0,0,1-.906.757,5.355,5.355,0,0,0-1.858,1.463,3.685,3.685,0,0,1-1.013.868c-3.066,1.524-5.945,3.418-9.193,4.588a3.973,3.973,0,0,0-2.651,2.447,2.441,2.441,0,0,1-1.416,1.59,26.652,26.652,0,0,1-3.549,1.547,32.62,32.62,0,0,0-4.959,1.583,40.175,40.175,0,0,1-4.591,1.7c-2.163.762-4.424,1.145-6.637,1.708a2.656,2.656,0,0,0-2.251,2.275,1.794,1.794,0,0,1-1.542,1.584c-2.791.723-5.467,1.825-8.276,2.491-1.207.287-2.4.654-3.582,1.022a7.715,7.715,0,0,0-3.994,2.47,5.567,5.567,0,0,1-1.792,1.308c-1.866,1.039-3.993,1.7-5.587,3.113a40.809,40.809,0,0,1-7.113,5.075,3.371,3.371,0,0,0-1.025.752c-1.033.621-2.24,1.9-3.36,2.184-1.951.492-4.474.175-6.758.811A20.7,20.7,0,0,0,1143.725,1512.214Z" transform="translate(0 0)" fill="#afa092"/>
    <path id="Path_60" data-name="Path 60" d="M1329.149,1541.8a20.26,20.26,0,0,1-8.977,4.11,2.21,2.21,0,0,0-1.821,1.4,2.606,2.606,0,0,1-2.265,1.676,3.64,3.64,0,0,0-2.386,1.386,2.277,2.277,0,0,1-1.238.79c-2.152.6-4.3,1.231-6.463,1.772a67.041,67.041,0,0,0-7.206,1.879c-.652.242-1.31.476-1.941.766a58.7,58.7,0,0,1-6.39,2.475,3.361,3.361,0,0,0-2.387,1.636,2.628,2.628,0,0,1-2.554,1.676,2.941,2.941,0,0,0-2.78,1.68,1.757,1.757,0,0,1-1.419.96,5.8,5.8,0,0,0-2.523.863,11.666,11.666,0,0,1-5.983,2.069,4.554,4.554,0,0,0-4,3.5,2.97,2.97,0,0,1-1.815,1.983c-1.133.51-2.272,1.016-3.441,1.431a4.032,4.032,0,0,0-2.323,1.97,1.792,1.792,0,0,1-1.176,1.04c-3.769.956-6.27,3.457-8.093,6.752a2.8,2.8,0,0,1-.685.964,16.434,16.434,0,0,1-4.947,2.985,25.864,25.864,0,0,0-3.482,1.32,3.8,3.8,0,0,0-2.4,3.483,1.758,1.758,0,0,1-.8,1.469c-.885.721-1.705,1.523-2.6,2.225-2.732,2.132-5.009,4.825-8.161,6.447-.7.36-1.012.668-.975,1a11.125,11.125,0,0,0-1.962,2.1,39.517,39.517,0,0,1-3.569,3.776c-.79.768-1.557,1.423-2.386,2.118-1.87,1.566-3.292,4.743-5.947,5.115-.384-.886.237-1.364.62-2.156a51.638,51.638,0,0,0,1.967-5.222c1.318-3.679,4.376-5.981,7.436-8.293.437.051.856-.225,1.626-.822a6.186,6.186,0,0,0,1.087-1.009c1.775-2.246,3.863-4.237,5.012-6.977.84-2,2.661-3.306,4.243-4.739,1.461-1.324,2.926-2.537,3.743-4.51a5.958,5.958,0,0,1,3.958-3.79,7.007,7.007,0,0,0,1.692-.927,1.292,1.292,0,0,0,.7-1.741c-.25-.6-.031-.934.521-1.166.366-.154.712-.353,1.067-.534a99.412,99.412,0,0,0,8.842-4.945c.512-.332,1.084-.669,1.092-1.322.014-1.023.686-1.309,1.457-1.624a59.022,59.022,0,0,0,5.622-2.394,3.883,3.883,0,0,0,1.8-1.284c.907-1.616,2.531-2.035,4.113-2.324a13.054,13.054,0,0,0,3.394-1.038,79.191,79.191,0,0,1,10.348-4.219c.508-.161,1.04-.492,1.561-.1a2.114,2.114,0,0,0,2.4-.013c2.683-1.343,5.617-1.978,8.408-3.016,3.109-1.156,6.376-1.886,9.564-2.837a22.283,22.283,0,0,1,4.046-1.007,18.279,18.279,0,0,0,5.547-1.641c4.316-1.908,8.606-3.873,12.908-5.814a3.746,3.746,0,0,1,2.02-.5C1330.268,1541.027,1329.7,1541.4,1329.149,1541.8Z" transform="translate(-39.365 -54.921)" fill="#afa092"/>
    <path id="Path_61" data-name="Path 61" d="M1312.065,1469.262c-2.3,1.276-4.552,2.673-6.936,3.777-3.245,1.5-6.572,2.835-9.9,4.136-6.8,2.656-13.607,5.324-20.643,7.332a2.681,2.681,0,0,0-1.517.879c-.619.81-.586,1.288.267,1.834.709.455,1.49.794,2.218,1.221.648.381.646.613.034,1.087a6,6,0,0,1-1.7.913c-4.316,1.506-8.612,3.076-12.962,4.476-1.774.571-2.99,1.459-3.431,3.313a1.478,1.478,0,0,1-1.608,1.264,37.918,37.918,0,0,0-6.961.657,47.709,47.709,0,0,0-7.43,1.557,5.329,5.329,0,0,0-4,3.64c-.239.842-.777,1.054-1.594.887a3.212,3.212,0,0,0-3.307,1.238,2.38,2.38,0,0,1-1.464.944c-1.175.2-2.343.493-3.527.581a4.486,4.486,0,0,0-3.119,1.167,2.4,2.4,0,0,1-1.243.457,70.519,70.519,0,0,0-9.991,2.973,11.614,11.614,0,0,1-3.161.841,5.728,5.728,0,0,0-3.981,2.112,8.3,8.3,0,0,1-3.02,2.336,17.68,17.68,0,0,0-1.54.911,2.7,2.7,0,0,0-1.433,1.828c-.173,1.427-1.179,2.107-2.124,2.893-2.672,2.223-5.489,4.3-7.98,6.706a124.15,124.15,0,0,1-10.379,9.168,4.023,4.023,0,0,0-.807.757,8.962,8.962,0,0,0-3.382,1.491c-4.642,3.483-7.8,9.243-13.384,11.493.542-1.183.391-2.695.824-3.741.529-1.278,1.627-2.226,2.357-3.36,1.053-1.637,1.442-3.534,2.77-4.977s2.112-3.307,3.4-4.783a43.251,43.251,0,0,1,4.034-3.654c.816-.723,1.645-1.432,2.468-2.146l4.669-3.3c-.354.172-.932.406-1.614.665q1.679-1.432,3.363-2.858c1.744-1.476,3.651-2.8,5.238-4.4,1.223-1.237,2.356-2.53,3.7-3.678a6.587,6.587,0,0,1,2.649-1.479c.672-.181,1.356-.313,2.023-.51a3.977,3.977,0,0,0,2.542-1.683,3.362,3.362,0,0,1,1.514-1.182c2.735-1.316,5.262-3.036,8.013-4.294a91.007,91.007,0,0,1,15.113-5.875,7.221,7.221,0,0,0,4.324-2.461,3.736,3.736,0,0,1,2.532-1.615c.684-.125,1.361-.286,2.044-.418a3.9,3.9,0,0,0,2.471-1.25,2.109,2.109,0,0,1,1.41-.757,26.333,26.333,0,0,0,5.83-1.79,51.361,51.361,0,0,1,7.149-2.571,39.1,39.1,0,0,0,6.677-2.059c2.1-.892,4.4-1.388,6.282-2.71a27.941,27.941,0,0,1,4-2.278c1.394-.667,2.85-1.211,3.489-2.814.083-.208.341-.354.533-.51a1.184,1.184,0,0,0,.552-.85c.016-1.229.906-1.5,1.835-1.816,2.4-.812,4.862-1.42,7.221-2.366a25.675,25.675,0,0,1,7.572-2.138,1.729,1.729,0,0,0,1.437-.94,1.434,1.434,0,0,1,1-.8c1.6-.342,3.2-.718,4.793-1.082a1.711,1.711,0,0,1,1.3.143,2.469,2.469,0,0,0,2.021.118c2.06-.564,4.1-1.191,6.2-1.608a3.271,3.271,0,0,0,.98-.351,30.044,30.044,0,0,1,7.586-2.6c.293-.077.611-.284,1.02.038C1314.211,1468.047,1313.144,1468.665,1312.065,1469.262Z" transform="translate(-10.276 -13.75)" fill="#afa092"/>
  </g>
</svg>
